<svg xmlns="http://www.w3.org/2000/svg" width="560" height="560" viewBox="0 0 560 560" fill="none" stroke="#6b7cc4" stroke-width="2" stroke-linecap="round" stroke-linejoin="round">
	<defs>
		<g id="cart">
			<path d="M-16 -12 h5 l4 16 h16 l4 -12 h-21"/>
			<circle cx="-4" cy="10" r="2.5"/>
			<circle cx="8" cy="10" r="2.5"/>
		</g>
		<g id="barcode">
			<path d="M-12 -10 v20 M-7 -10 v14 M-2 -10 v20 M3 -10 v12 M8 -10 v20 M12 -10 v16"/>
		</g>
		<g id="tag">
			<path d="M-12 -2 L2 -14 L14 -2 L2 12 Z"/>
			<circle cx="2" cy="-6" r="2"/>
		</g>
		<g id="box">
			<path d="M-12 -6 L0 -12 L12 -6 L12 8 L0 14 L-12 8 Z M-12 -6 L0 0 L12 -6 M0 0 V14"/>
		</g>
		<g id="chart">
			<path d="M-14 -12 V12 H14"/>
			<path d="M-8 12 V2 M-2 12 V-4 M4 12 V6 M10 12 V-8"/>
		</g>
		<g id="clipboard">
			<rect x="-10" y="-14" width="20" height="28" rx="2"/>
			<rect x="-4" y="-17" width="8" height="5" rx="1"/>
			<path d="M-6 -4 l2 2 l4 -4 M-6 4 l2 2 l4 -4"/>
		</g>
		<g id="hanger">
			<path d="M0 -14 a3.5 3.5 0 1 1 3.5 -3.5 M0 -14 v4 L-16 7 h32 L0 -10"/>
		</g>
		<g id="rfid">
			<rect x="-14" y="-8" width="18" height="16" rx="3"/>
			<path d="M9 -4 a7 7 0 0 1 0 8 M13 -8 a13 13 0 0 1 0 16"/>
		</g>
		<g id="camera">
			<rect x="-14" y="-8" width="28" height="18" rx="3"/>
			<circle cx="0" cy="1" r="5"/>
			<path d="M-6 -8 l2 -4 h8 l2 4"/>
		</g>
		<g id="stopwatch">
			<circle cx="0" cy="2" r="11"/>
			<path d="M0 2 L6 -3 M-3 -13 h6 M0 -13 v4"/>
		</g>
		<g id="truck">
			<path d="M-16 6 V-6 h18 V6 Z M2 6 h4 M2 -2 h8 l6 5 v3 h-3"/>
			<circle cx="-9" cy="8" r="2.5"/>
			<circle cx="9" cy="8" r="2.5"/>
		</g>
		<g id="coffee">
			<path d="M-8 -6 h16 v10 a6 6 0 0 1 -6 6 h-4 a6 6 0 0 1 -6 -6 z M8 -4 h3 a4 4 0 0 1 0 8 h-3"/>
			<path d="M-3 -10 c0 -2 2 -3 2 -5 M3 -10 c0 -2 2 -3 2 -5"/>
		</g>
		<g id="plane">
			<path d="M-14 2 L14 -10 L2 12 L-1 3 Z M-1 3 L14 -10"/>
		</g>
		<g id="bulb">
			<circle cx="0" cy="-3" r="8"/>
			<path d="M-3 5 v3 h6 v-3 M-3 8 h6 M-13 -10 l-3 -2 M13 -10 l3 -2 M0 -15 v-4"/>
		</g>
		<g id="sparkle">
			<path d="M0 -6 L1.5 -1.5 L6 0 L1.5 1.5 L0 6 L-1.5 1.5 L-6 0 L-1.5 -1.5 Z"/>
		</g>
		<g id="plus">
			<path d="M-4 0 h8 M0 -4 v8"/>
		</g>
	</defs>

	<use href="#cart" transform="translate(70 60) rotate(-12)"/>
	<use href="#sparkle" transform="translate(160 32) scale(.8)"/>
	<use href="#barcode" transform="translate(250 72) rotate(8)"/>
	<use href="#sparkle" transform="translate(342 42) rotate(20) scale(.6)"/>
	<use href="#bulb" transform="translate(432 82) rotate(-10)"/>
	<use href="#plus" transform="translate(520 34)"/>

	<use href="#tag" transform="translate(42 182) rotate(15)"/>
	<use href="#chart" transform="translate(152 162) rotate(-8)"/>
	<circle cx="232" cy="132" r="1.6"/>
	<use href="#clipboard" transform="translate(312 192) rotate(10)"/>
	<use href="#camera" transform="translate(442 172) rotate(-14)"/>
	<use href="#sparkle" transform="translate(532 152) scale(.7)"/>

	<use href="#truck" transform="translate(92 302) rotate(6)"/>
	<use href="#plus" transform="translate(182 272) rotate(15)"/>
	<use href="#rfid" transform="translate(262 312) rotate(-12)"/>
	<use href="#stopwatch" transform="translate(372 292) rotate(12)"/>
	<use href="#hanger" transform="translate(482 322) rotate(-6)"/>
	<circle cx="545" cy="272" r="1.6"/>

	<use href="#coffee" transform="translate(62 432) rotate(-8)"/>
	<use href="#plane" transform="translate(172 422) rotate(14)"/>
	<use href="#box" transform="translate(282 452) rotate(-10)"/>
	<use href="#tag" transform="translate(392 432) rotate(-18) scale(.85)"/>
	<use href="#chart" transform="translate(502 442) rotate(10) scale(.85)"/>

	<use href="#sparkle" transform="translate(122 528) scale(.8)"/>
	<text x="315" y="546" font-family="Georgia, serif" font-size="20" fill="#6b7cc4" stroke="none" transform="rotate(-10 315 540)">π</text>
	<use href="#plus" transform="translate(472 528) rotate(20)"/>
	<circle cx="32" cy="518" r="1.6"/>
	<text x="205" y="240" font-family="Georgia, serif" font-size="18" fill="#6b7cc4" stroke="none" transform="rotate(12 205 236)">π</text>
</svg>
