<svg xmlns="http://www.w3.org/2000/svg" width="560" height="560" viewBox="0 0 560 560" fill="none" stroke="#6b7cc4" stroke-width="2" stroke-linecap="round" stroke-linejoin="round">
	<defs>
		<g id="cart"><path d="M-16 -12 h5 l4 16 h16 l4 -12 h-21"/><circle cx="-4" cy="10" r="2.5"/><circle cx="8" cy="10" r="2.5"/></g>
		<g id="barcode"><path d="M-12 -10 v20 M-7 -10 v14 M-2 -10 v20 M3 -10 v12 M8 -10 v20 M12 -10 v16"/></g>
		<g id="tag"><path d="M-12 -2 L2 -14 L14 -2 L2 12 Z"/><circle cx="2" cy="-6" r="2"/></g>
		<g id="box"><path d="M-12 -6 L0 -12 L12 -6 L12 8 L0 14 L-12 8 Z M-12 -6 L0 0 L12 -6 M0 0 V14"/></g>
		<g id="chart"><path d="M-14 -12 V12 H14"/>
			<path d="M-8 12 V2" pathLength="1" stroke-dasharray="1"><animate attributeName="stroke-dashoffset" values="1;0;0;1;1" keyTimes="0;0.1;0.86;0.94;1" dur="9s" repeatCount="indefinite"/></path>
			<path d="M-2 12 V-4" pathLength="1" stroke-dasharray="1"><animate attributeName="stroke-dashoffset" values="1;1;0;0;1;1" keyTimes="0;0.07;0.18;0.86;0.94;1" dur="9s" repeatCount="indefinite"/></path>
			<path d="M4 12 V6" pathLength="1" stroke-dasharray="1"><animate attributeName="stroke-dashoffset" values="1;1;0;0;1;1" keyTimes="0;0.14;0.25;0.86;0.94;1" dur="9s" repeatCount="indefinite"/></path>
			<path d="M10 12 V-8" pathLength="1" stroke-dasharray="1"><animate attributeName="stroke-dashoffset" values="1;1;0;0;1;1" keyTimes="0;0.21;0.33;0.86;0.94;1" dur="9s" repeatCount="indefinite"/></path></g>
		<g id="clipboard"><rect x="-10" y="-14" width="20" height="28" rx="2"/><rect x="-4" y="-17" width="8" height="5" rx="1"/>
			<path d="M-6 -4 l2 2 l4 -4"><animate attributeName="opacity" values="0;0;1;1;1;0" keyTimes="0;0.15;0.25;0.85;0.95;1" dur="9s" repeatCount="indefinite"/></path>
			<path d="M-6 4 l2 2 l4 -4"><animate attributeName="opacity" values="0;0;1;1;0" keyTimes="0;0.4;0.5;0.9;1" dur="9s" repeatCount="indefinite"/></path></g>
		<g id="hanger"><path d="M0 -14 a3.5 3.5 0 1 1 3.5 -3.5 M0 -14 v4 L-16 7 h32 L0 -10"/></g>
		<g id="rfid"><rect x="-14" y="-8" width="18" height="16" rx="3"/><path d="M9 -4 a7 7 0 0 1 0 8"><animate attributeName="opacity" values="1;0.2;1" dur="2.6s" repeatCount="indefinite"/></path><path d="M13 -8 a13 13 0 0 1 0 16"><animate attributeName="opacity" values="0.2;1;0.2" dur="2.6s" repeatCount="indefinite"/></path></g>
		<g id="camera"><rect x="-14" y="-8" width="28" height="18" rx="3"/><circle cx="0" cy="1" r="5"/><path d="M-6 -8 l2 -4 h8 l2 4"/>
			<g opacity="0"><path d="M8 -14 l3 -3 M11 -9 h4 M6 -17 v-2" stroke-width="2.4"/><animate attributeName="opacity" values="0;0;0.95;0" keyTimes="0;0.82;0.87;1" dur="8s" repeatCount="indefinite"/></g></g>
		<g id="stopwatch"><circle cx="0" cy="2" r="11"/><path d="M-3 -13 h6 M0 -13 v4"/>
			<path d="M0 2 L6 -3"><animateTransform attributeName="transform" type="rotate" values="0 0 2;360 0 2" dur="12s" repeatCount="indefinite"/></path></g>
		<g id="truck"><path d="M-16 6 V-6 h18 V6 Z M2 6 h4 M2 -2 h8 l6 5 v3 h-3"/><circle cx="-9" cy="8" r="2.5"/><circle cx="9" cy="8" r="2.5"/></g>
		<g id="coffee"><path d="M-8 -6 h16 v10 a6 6 0 0 1 -6 6 h-4 a6 6 0 0 1 -6 -6 z M8 -4 h3 a4 4 0 0 1 0 8 h-3"/>
			<path d="M-3 -10 c0 -2 2 -3 2 -5 M3 -10 c0 -2 2 -3 2 -5"><animate attributeName="opacity" values="0.15;1;0.15" dur="4s" repeatCount="indefinite"/></path></g>
		<g id="plane"><g><animateTransform attributeName="transform" type="rotate" values="-6;6;-6" dur="2.8s" repeatCount="indefinite" additive="sum"/><path d="M-14 2 L14 -10 L2 12 L-1 3 Z M-1 3 L14 -10"/></g></g>
		<g id="bulb"><circle cx="0" cy="-3" r="8"/><path d="M-3 5 v3 h6 v-3 M-3 8 h6"/>
			<g><path d="M-13 -10 l-3 -2 M13 -10 l3 -2 M0 -15 v-4"/><animate attributeName="opacity" values="0.1;0.1;1;0.4;0.1" keyTimes="0;0.5;0.6;0.8;1" dur="7s" repeatCount="indefinite"/></g>
			<circle cx="0" cy="-3" r="3.5" stroke="none" fill="#6b7cc4"><animate attributeName="opacity" values="0;0;0.55;0.15;0" keyTimes="0;0.5;0.6;0.8;1" dur="7s" repeatCount="indefinite"/></circle></g>
		<g id="sparkle"><g><animateTransform attributeName="transform" type="scale" values="1;0.55;1" dur="5s" repeatCount="indefinite" additive="sum"/><animate attributeName="opacity" values="1;0.3;1" dur="5s" repeatCount="indefinite"/><path d="M0 -6 L1.5 -1.5 L6 0 L1.5 1.5 L0 6 L-1.5 1.5 L-6 0 L-1.5 -1.5 Z"/></g></g>
		<g id="plus"><path d="M-4 0 h8 M0 -4 v8"/></g>
		<g id="star"><g><animate attributeName="opacity" values="0.4;1;0.4" dur="6.5s" repeatCount="indefinite"/><path d="M0 -8 L2.2 -2.5 L8 -2.2 L3.4 1.4 L5 7 L0 3.6 L-5 7 L-3.4 1.4 L-8 -2.2 L-2.2 -2.5 Z"/></g></g>
		<g id="ticket"><rect x="-14" y="-8" width="28" height="16" rx="2"/><path d="M0 -6 v2 M0 -1 v2 M0 4 v2"/></g>
		<g id="pie"><circle r="11" pathLength="1" stroke-dasharray="1"><animate attributeName="stroke-dashoffset" values="1;0;0" keyTimes="0;0.3;1" dur="12s" repeatCount="indefinite"/></circle>
			<path d="M0 0 L0 -11"><animate attributeName="opacity" values="0;0;1;1" keyTimes="0;0.3;0.35;1" dur="12s" repeatCount="indefinite"/></path>
			<path d="M0 0 L9 6"><animateTransform attributeName="transform" type="rotate" values="0;360" dur="18s" repeatCount="indefinite"/><animate attributeName="opacity" values="0;0;1;1" keyTimes="0;0.3;0.35;1" dur="12s" repeatCount="indefinite"/></path></g>
		<g id="linechart"><path d="M-13 -10 V10 H13"/>
			<path d="M-9 6 L-3 -2 L3 2 L10 -7" pathLength="1" stroke-dasharray="1"><animate attributeName="stroke-dashoffset" values="1;0;0;1" keyTimes="0;0.22;0.9;1" dur="10s" repeatCount="indefinite"/></path>
			<circle cx="10" cy="-7" r="1.4"><animate attributeName="opacity" values="0;0;1;1;0" keyTimes="0;0.22;0.27;0.9;1" dur="10s" repeatCount="indefinite"/></circle></g>
		<g id="phone"><rect x="-7" y="-13" width="14" height="26" rx="3"/><path d="M-3 -10 h6 M-2 10 h4"/>
			<circle cx="4" cy="-9" r="1.8" fill="#6b7cc4" stroke="none"><animate attributeName="opacity" values="0;1;0.2;1;0;0" keyTimes="0;0.05;0.1;0.15;0.22;1" dur="7s" repeatCount="indefinite"/></circle></g>
		<g id="laptop"><rect x="-11" y="-10" width="22" height="14" rx="1.5"/><path d="M-15 8 h30 l-3 -4 h-24 z"/>
			<circle cx="-3" cy="-3" r="1" fill="#6b7cc4" stroke="none"><animate attributeName="opacity" values="0.15;1;0.15" dur="1.2s" repeatCount="indefinite"/></circle>
			<circle cx="0" cy="-3" r="1" fill="#6b7cc4" stroke="none"><animate attributeName="opacity" values="0.15;1;0.15" dur="1.2s" begin="0.25s" repeatCount="indefinite"/></circle>
			<circle cx="3" cy="-3" r="1" fill="#6b7cc4" stroke="none"><animate attributeName="opacity" values="0.15;1;0.15" dur="1.2s" begin="0.5s" repeatCount="indefinite"/></circle></g>
		<g id="pen"><path d="M-12 10 L5 -7 l6 6 L-6 16 Z M5 -7 l7 -7 M-12 10 l-2 6 6 -2"/></g>
		<g id="pencil"><path d="M-12 10 L6 -8 l4 4 L-8 14 Z M-12 10 l-4 8 8 -4 M8 -6 l3 -3"/></g>
		<g id="fish"><g><animateTransform attributeName="transform" type="translate" values="0 0;12 -3;0 0;-9 3;0 0" dur="13s" repeatCount="indefinite" additive="sum"/>
			<path d="M-9 0 c4 -7 14 -7 18 0 c-4 7 -14 7 -18 0 z"/><circle cx="4" cy="-1.5" r="0.9" fill="#6b7cc4" stroke="none"/>
			<path d="M-9 0 l-6 -5 v10 z"><animateTransform attributeName="transform" type="rotate" values="-12 -9 0;12 -9 0;-12 -9 0" dur="1.7s" repeatCount="indefinite"/></path></g></g>
		<g id="book"><path d="M-14 -8 c5 -3 9 -3 14 0 c5 -3 9 -3 14 0 V8 c-5 -3 -9 -3 -14 0 c-5 3 -9 3 -14 0 Z"/><path d="M0 -8 V8"/>
			<path d="M0 -8 c5 -3 9 -3 13 0 V7 c-4 -3 -8 -3 -13 0 Z" fill="rgba(107,124,196,0.10)"><animateTransform attributeName="transform" type="scale" values="1 1;1 1;0.06 1;-1 1;-1 1;0.06 1;1 1" keyTimes="0;0.3;0.42;0.5;0.72;0.82;1" dur="11s" repeatCount="indefinite"/></path></g>
	</defs>

	<use href="#chart" transform="translate(197 63) rotate(-7)"/>
	<use href="#linechart" transform="translate(437 92) rotate(-9)"/>
	<use href="#tag" transform="translate(321 103) rotate(-9)"/>
	<use href="#hanger" transform="translate(94 255) rotate(18)"/>
	<use href="#stopwatch" transform="translate(92 156) rotate(-1)"/>
	<use href="#plane" transform="translate(430 190) rotate(-7)"/>
	<use href="#phone" transform="translate(507 435) rotate(-5)"/>
	<use href="#pencil" transform="translate(300 254) rotate(2)"/>
	<use href="#linechart" transform="translate(516 267) rotate(7)"/>
	<use href="#pie" transform="translate(71 511) rotate(3)"/>
	<use href="#cart" transform="translate(162 130) rotate(-9)"/>
	<use href="#star" transform="translate(43 310) rotate(-3) scale(.8)"/>
</svg>
